<svg viewBox="0 0 400 300" xmlns="http://www.w3.org/2000/svg">
  <defs>
    <linearGradient id="sky" x1="0" y1="0" x2="0" y2="1"><stop offset="0" stop-color="#9a7bff"/><stop offset="1" stop-color="#ffd6f5"/></linearGradient>
    <linearGradient id="grass" x1="0" y1="0" x2="0" y2="1"><stop offset="0" stop-color="#b8f0cc"/><stop offset="1" stop-color="#8fdcae"/></linearGradient>
  </defs>
  <rect width="400" height="300" fill="url(#sky)"/>
  <g fill="none" stroke-width="9"><path d="M230 210 A110 110 0 0 1 450 210" stroke="#ff6b6b"/><path d="M239 210 A101 101 0 0 1 441 210" stroke="#ffb347"/><path d="M248 210 A92 92 0 0 1 432 210" stroke="#ffe066"/><path d="M257 210 A83 83 0 0 1 423 210" stroke="#7bd88f"/><path d="M266 210 A74 74 0 0 1 414 210" stroke="#6ec6ff"/><path d="M275 210 A65 65 0 0 1 405 210" stroke="#b18cff"/></g>
  <g fill="#fff"><path d="M60 40 l3 8 8 1 -6 5 2 8 -7 -4 -7 4 2 -8 -6 -5 8 -1z"/><path d="M180 30 l2 5 5 1 -4 3 1 5 -4 -2 -4 2 1 -5 -4 -3 5 -1z"/><circle cx="120" cy="70" r="2"/><circle cx="360" cy="40" r="2"/><circle cx="220" cy="80" r="1.6"/></g>
  <g transform="translate(40 100)">
    <rect x="30" y="50" width="120" height="80" fill="#f3e8ff"/><rect x="10" y="20" width="30" height="110" fill="#f3e8ff"/><rect x="140" y="20" width="30" height="110" fill="#f3e8ff"/><rect x="72" y="0" width="36" height="60" fill="#f3e8ff"/>
    <polygon points="4,22 25,-24 46,22" fill="#b18cff"/><polygon points="134,22 155,-24 176,22" fill="#b18cff"/><polygon points="66,2 90,-50 114,2" fill="#b18cff"/>
    <path d="M90 -50 v-16 l18 6 -18 6" fill="#ff7ac6" stroke="#ddd" stroke-width="2"/>
    <path d="M74 130 v-34 a16 16 0 0 1 32 0 v34z" fill="#8b5a34"/><rect x="20" y="50" width="10" height="18" rx="5" fill="#6ec6ff"/><rect x="150" y="50" width="10" height="18" rx="5" fill="#6ec6ff"/><rect x="85" y="18" width="10" height="18" rx="5" fill="#6ec6ff"/>
  </g>
  <rect y="226" width="400" height="74" fill="url(#grass)"/>
  <g transform="translate(250 240)">
    <ellipse cx="0" cy="22" rx="50" ry="7" fill="#000" opacity="0.1"/>
    <path d="M-40 -30 Q-64 -20 -58 10 Q-50 -10 -38 -14" fill="#ff9ce6"/>
    <ellipse cx="0" cy="-26" rx="44" ry="26" fill="#fdfbff"/>
    <g fill="#efe9ff"><rect x="-34" y="-10" width="10" height="32" rx="5"/><rect x="-16" y="-10" width="10" height="32" rx="5"/><rect x="8" y="-10" width="10" height="32" rx="5"/><rect x="26" y="-10" width="10" height="32" rx="5"/></g>
    <path d="M22 -40 Q30 -66 44 -76" stroke="#fdfbff" stroke-width="22" fill="none" stroke-linecap="round"/>
    <ellipse cx="54" cy="-80" rx="22" ry="18" fill="#fdfbff"/><ellipse cx="68" cy="-72" rx="10" ry="8" fill="#ffd6e7"/>
    <polygon points="48,-96 60,-132 60,-96" fill="#ffd166"/>
    <circle cx="52" cy="-84" r="5" fill="#6a3fb5"/><circle cx="53" cy="-86" r="1.6" fill="#fff"/><ellipse cx="44" cy="-74" rx="5" ry="3" fill="#ff8fab"/>
    <g><circle cx="36" cy="-90" r="7" fill="#ff6b6b"/><circle cx="30" cy="-80" r="7" fill="#ffb347"/><circle cx="26" cy="-68" r="7" fill="#ffe066"/><circle cx="22" cy="-56" r="7" fill="#7bd88f"/><circle cx="18" cy="-44" r="7" fill="#6ec6ff"/></g>
  </g>
  <g fill="#c3a6ff"><polygon points="60,268 68,236 76,268"/><polygon points="74,268 80,246 86,268"/></g>
  <g><rect x="120" y="256" width="6" height="12" fill="#fff3e0"/><path d="M110 258 Q123 238 136 258Z" fill="#ff8fab"/></g>
</svg>
